:SAMPLES-PER-SECOND 30
:FULLY-SPECIFIED
:DEGREES
80
root  7.23243 54.7002 -8.06057 -8.1728 -71.0564 0.27436
RightUpLeg  -63.0603 -21.8286 9.0243
RightLeg  122.839 -5.35398 8.36509
RightFoot  13.7544 -2.29025 10.7407
RightToes  0.000482159 0.542163 -0.142577
Spine  58.6215 0.309357 -0.447365
Spine1  -4.88877 0.393639 4.44377
HEad  -27.3674 -0.344958 -7.13798
LeftShoulder1  4.72868 -11.549 -25.235
LeftArm  -31.1494 -23.475 20.7782
LeftForeArm  44.9655 -47.7185 -9.0678
LeftHand  -0.25398 0.0180481 5.50724
RightShoulder  6.58881 13.1802 33.5707
RightArm  3.34115 2.28597 -4.46044
RightForeArm  -27.9318 20.9255 6.62248
RightHand  -3.72597 10.6548 -26.9354
LeftUpLeg  -75.9396 22.1524 -30.8089
LeftLeg  36.647 -0.454152 0.000174694
LeftFoot  7.61747 0.531476 -3.47481
LeftToes  1.06246e-005 4.65855e-005 -8.18504e-006
81
root  4.54094 54.0421 -7.67563 -1.98717 -71.311 -7.04097
RightUpLeg  -78.0884 -19.9858 9.13743
RightLeg  132.517 -6.79806 7.46733
RightFoot  10.2607 -1.79846 9.79044
RightToes  0.000482159 0.542163 -0.142577
Spine  58.4732 -1.32569 4.26792
Spine1  -3.59022 1.37863 5.00655
HEad  -25.8247 -1.71916 -9.04682
LeftShoulder1  6.46525 -12.5535 -34.248
LeftArm  -15.9177 -15.6939 15.0084
LeftForeArm  44.3578 -43.5036 -7.64818
LeftHand  -0.25398 0.0180481 5.50724
RightShoulder  6.90765 12.7606 36.473
RightArm  8.513 2.14669 -1.50834
RightForeArm  -28.6173 21.0448 6.82053
RightHand  -3.62337 10.4901 -26.4751
LeftUpLeg  -66.1716 24.554 -22.2637
LeftLeg  34.9054 0.168287 0.499617
LeftFoot  12.6576 0.583215 -3.10738
LeftToes  1.06246e-005 4.65855e-005 -8.18504e-006
82
root  1.71845 53.0139 -7.17699 10.7664 -71.1657 -22.3173
RightUpLeg  -88.7918 -19.6233 10.2726
RightLeg  135.571 -6.09411 6.09404
RightFoot  6.05426 -1.29685 8.69329
RightToes  0.000482159 0.542163 -0.142577
Spine  58.8461 -3.51806 11.079
Spine1  -3.1649 2.53807 6.42352
HEad  -22.8096 -3.12121 -10.5248
LeftShoulder1  7.6274 -12.4606 -41.4769
LeftArm  -4.55342 -3.8654 8.97598
LeftForeArm  41.2786 -40.8176 -7.02249
LeftHand  -0.25398 0.0180481 5.50724
RightShoulder  6.95881 12.2134 38.2115
RightArm  14.4053 -0.496554 0.892075
RightForeArm  -26.1656 23.1043 6.30132
RightHand  -3.40653 10.1611 -25.473
LeftUpLeg  -53.5434 26.056 -10.4115
LeftLeg  32.4265 -0.0742025 0.326262
LeftFoot  18.257 0.705585 -3.10601
LeftToes  1.06246e-005 4.65855e-005 -8.18504e-006
83
root  -0.926381 51.6048 -6.58101 26.0321 -69.9972 -42.6451
RightUpLeg  -91.4744 -20.481 11.9055
RightLeg  131.726 -3.38617 4.07383
RightFoot  0.427325 -0.72677 7.0898
RightToes  0.000482159 0.542163 -0.142577
Spine  60.599 -6.27579 19.1295
Spine1  -3.88103 3.75565 8.07655
HEad  -18.6169 -4.01612 -11.4027
LeftShoulder1  7.88757 -11.527 -45.7566
LeftArm  1.86703 10.1175 2.90029
LeftForeArm  40.2254 -37.7845 -6.24502
LeftHand  -0.25398 0.0180481 5.50724
RightShoulder  7.16089 12.0593 39.8782
RightArm  16.8495 -4.97369 2.11446
RightForeArm  -23.2057 24.3965 6.28217
RightHand  -3.33913 9.91721 -25.3676
LeftUpLeg  -36.9909 25.3949 4.0517
LeftLeg  27.9055 -1.10671 -0.306744
LeftFoot  22.9404 1.07158 -3.92253
LeftToes  1.06246e-005 4.65855e-005 -8.18504e-006
84
root  -3.67565 49.5574 -6.01143 35.9919 -69.2256 -54.9272
RightUpLeg  -93.8619 -20.3926 12.2672
RightLeg  124.039 0.654963 -0.345499
RightFoot  -3.14919 -0.419361 5.59015
RightToes  0.000482159 0.542163 -0.142577
Spine  58.2355 -6.90024 24.0911
Spine1  -4.48207 4.90678 9.39861
HEad  -12.5746 -4.90727 -12.0966
LeftShoulder1  7.30372 -10.301 -46.1074
LeftArm  3.92371 24.362 -3.92472
LeftForeArm  39.7503 -33.2531 -5.1081
LeftHand  -0.25398 0.0180481 5.50724
RightShoulder  7.06653 11.5706 40.6989
RightArm  16.218 -11.0646 3.78384
RightForeArm  -22.8164 25.3829 6.51742
RightHand  -3.43742 9.88359 -26.1321
LeftUpLeg  -23.4562 22.8405 12.9623
LeftLeg  22.8518 -1.21472 -0.242434
LeftFoot  27.1698 2.27136 -6.94385
LeftToes  1.06246e-005 4.65855e-005 -8.18504e-006
85
root  -6.61386 47.063 -5.5229 46.2477 -69.3671 -64.281
RightUpLeg  -97.0228 -18.9015 13.575
RightLeg  113.66 3.29099 -5.96426
RightFoot  -3.75993 -0.258125 3.50524
RightToes  0.000482159 0.542163 -0.142577
Spine  51.7458 -5.06286 26.8393
Spine1  -4.27473 5.96187 10.2951
HEad  -4.43841 -5.81308 -12.2903
LeftShoulder1  5.98308 -8.74309 -42.3331
LeftArm  2.5337 38.9328 -11.4351
LeftForeArm  37.255 -29.5011 -4.35919
LeftHand  -0.25398 0.0180481 5.50724
RightShoulder  6.25357 10.1872 39.5345
RightArm  13.8199 -18.6325 6.91142
RightForeArm  -21.6419 28.1044 7.1327
RightHand  -3.39702 9.49813 -26.4681
LeftUpLeg  -13.885 23.9411 16.8558
LeftLeg  18.0153 -2.52173 -0.564545
LeftFoot  30.4327 3.59159 -10.0155
LeftToes  1.06246e-005 4.65855e-005 -8.18504e-006
86
root  -9.65018 44.3883 -5.21786 52.672 -69.5152 -69.2207
RightUpLeg  -96.7497 -18.2316 14.56
RightLeg  102.233 2.65405 -8.7445
RightFoot  -4.79531 -0.207541 3.14578
RightToes  0.000482159 0.542163 -0.142577
Spine  44.8633 -2.83061 26.3558
Spine1  -4.13977 5.85217 11.409
HEad  3.00049 -5.7963 -10.9746
LeftShoulder1  4.46136 -6.98536 -36.4062
LeftArm  -0.180431 52.6857 -18.4442
LeftForeArm  31.992 -26.0625 -3.91613
LeftHand  -0.25398 0.0180481 5.50724
RightShoulder  5.03286 8.25075 36.7909
RightArm  11.2568 -26.913 11.2279
RightForeArm  -17.6324 33.0584 8.2658
RightHand  -3.15837 8.62663 -26.1486
LeftUpLeg  -5.71651 25.5547 18.1658
LeftLeg  15.0875 -5.49391 -1.45127
LeftFoot  25.2619 2.55418 -7.92683
LeftToes  1.06246e-005 4.65855e-005 -8.18504e-006
87
root  -12.5638 41.7885 -5.22491 45.2766 -70.49 -62.6809
RightUpLeg  -89.9754 -20.2059 11.6612
RightLeg  90.6437 0.702372 -8.20268
RightFoot  -7.01468 -0.24362 5.17149
RightToes  0.000482159 0.542163 -0.142577
Spine  42.4001 -2.08257 20.8889
Spine1  -5.08282 3.73106 12.6408
HEad  5.28804 -4.67278 -7.60228
LeftShoulder1  3.69168 -5.91084 -33.1705
LeftArm  -4.21517 60.8622 -23.3458
LeftForeArm  25.721 -19.6671 -3.42096
LeftHand  -0.25398 0.0180481 5.50724
RightShoulder  4.05719 6.55575 34.4084
RightArm  7.31937 -34.5882 16.8524
RightForeArm  -14.0743 38.3718 9.6782
RightHand  -3.01021 7.89163 -26.2826
LeftUpLeg  1.21318 17.5526 15.1008
LeftLeg  18.0342 -1.7501 -0.15721
LeftFoot  6.81194 0.0481569 0.293146
LeftToes  1.06246e-005 4.65855e-005 -8.18504e-006
88
root  -15.2101 39.4396 -5.51568 25.4163 -72.0136 -45.7947
RightUpLeg  -77.8475 -22.7939 5.31086
RightLeg  77.8766 -1.25921 -8.1683
RightFoot  -7.97042 -0.234798 6.11016
RightToes  0.000482159 0.542163 -0.142577
Spine  44.4949 -2.10924 13.2512
Spine1  -5.66226 1.19755 12.1025
HEad  1.70486 -4.25153 -2.88904
LeftShoulder1  3.85373 -5.93662 -34.6734
LeftArm  -10.8145 59.4863 -27.1099
LeftForeArm  21.7075 -12.3995 -3.35856
LeftHand  -0.25398 0.0180481 5.50724
RightShoulder  3.73125 5.73751 34.4209
RightArm  0.742052 -39.8517 23.4248
RightForeArm  -13.5296 41.2826 10.6291
RightHand  -3.12338 7.88577 -27.2319
LeftUpLeg  4.67127 5.01378 7.00286
LeftLeg  29.188 9.13418 5.97095
LeftFoot  -14.5417 0.150826 7.1091
LeftToes  1.06246e-005 4.65855e-005 -8.18504e-006
89
root  -17.8731 37.6483 -5.81797 7.29807 -73.4618 -28.6937
RightUpLeg  -65.2073 -23.2315 0.888227
RightLeg  63.3723 -3.8705 -8.95957
RightFoot  -7.25077 -0.233525 5.17948
RightToes  0.000482159 0.542163 -0.142577
Spine  44.5768 -1.26853 8.61119
Spine1  -3.89013 0.642637 8.826
HEad  -2.77725 -6.12109 1.19862
LeftShoulder1  4.40882 -6.54647 -37.6695
LeftArm  -14.0646 50.988 -30.4829
LeftForeArm  18.837 -11.1476 -3.26548
LeftHand  -0.25398 0.0180481 5.50724
RightShoulder  3.88429 5.7732 35.8766
RightArm  -4.942 -41.3566 28.6677
RightForeArm  -12.6155 40.0445 10.1698
RightHand  -3.16272 7.96545 -27.4008
LeftUpLeg  4.41563 1.79702 0.77923
LeftLeg  43.4421 13.0329 13.0473
LeftFoot  -26.4452 0.80311 4.94833
LeftToes  1.06246e-005 4.65855e-005 -8.18504e-006
90
root  -20.9127 36.5546 -5.78045 -1.57331 -75.2399 -17.4257
RightUpLeg  -54.0606 -23.4286 0.676569
RightLeg  48.2046 -5.25355 -6.76157
RightFoot  -6.33762 -0.299806 5.8091
RightToes  0.000482159 0.542163 -0.142577
Spine  39.1563 0.00506221 8.10237
Spine1  -1.576 1.99632 4.73657
HEad  -2.59709 -9.13381 2.603
LeftShoulder1  4.70111 -6.68905 -39.8346
LeftArm  -15.7577 42.3902 -34.2643
LeftForeArm  20.4759 -17.9577 -3.62189
LeftHand  -0.25398 0.0180481 5.50724
RightShoulder  4.05726 6.12734 36.1383
RightArm  -5.08845 -40.8104 29.5594
RightForeArm  -9.39774 36.713 8.8998
RightHand  -3.03686 7.85662 -26.5715
LeftUpLeg  4.30769 5.03714 -0.500349
LeftLeg  50.3718 11.028 14.3266
LeftFoot  -31.3837 0.218807 0.14256
LeftToes  1.06246e-005 4.65855e-005 -8.18504e-006
